{"title":"Shadowless Sword (2005) 720p Blu-Ray HEVC 265  [Dual-Audio] [Kor","uid":11228678,"size":804620240,"categoryP":"video","categoryS":"hd___movies","magnet":"?xt=urn:btih:58206a75f8ccb0488b561f3c9d15fd1c37f6eb56&amp;dn=Shadowless+Sword+%282005%29+720p+Blu-Ray+HEVC+265++%5BDual-Audio%5D+%5BKor&amp;tr=udp%3A%2F%2Ftracker.openbittorrent.com%3A80&amp;tr=udp%3A%2F%2Fopen.demonii.com%3A1337&amp;tr=udp%3A%2F%2Ftracker.coppersurfer.tk%3A6969&amp;tr=udp%3A%2F%2Fexodus.desync.com%3A6969","seeders":7,"leechers":4,"uploader":"rsy007","files":5,"time":1413489057,"description":"Complete name                            : Shadowless Sword (2005) 720p Blu-Ray HEVC 265  [Dual-Audio] [Korean 5.1 + Hindi] TG ENCODER\nFormat                                   : Matroska\nFormat version                           : Version 4 / Version 2\nFile size                                : 767 MiB\nDuration                                 : 1h 56mn\nOverall bit rate                         : 922 Kbps\nMovie name                               : Shadowless Sword (2005) 720p Blu-Ray HEVC 265  [Dual-Audio] [Korean 5.1 + Hindi] TG ENCODER \nEncoded date                             : UTC 2014-10-16 06:11:53\nWriting application                      : mkvmerge v7.1.0 ('Good Love') 32bit built on Jul 27 2014 12:59:18\nWriting library                          : libebml v1.3.0 + libmatroska v1.4.1\n_STATISTICS_WRITING_APP                  : mkvmerge v7.1.0 ('Good Love') 32bit built on Jul 27 2014 12:59:18\n_STATISTICS_WRITING_DATE_UTC             : 2014-10-16 06:11:53\n_STATISTICS_TAGS                         : BPS DURATION NUMBER_OF_FRAMES NUMBER_OF_BYTES\nDURATION                                 : 01:56:21.892000000\nNUMBER_OF_FRAMES                         : 167398\nNUMBER_OF_BYTES                          : 523537229\n\nVideo\nID                                       : 1\nFormat                                   : HEVC\nFormat/Info                              : High Efficiency Video Coding\nCodec ID                                 : V_MPEGH/ISO/HEVC\nDuration                                 : 1h 56mn\nBit rate                                 : 584 Kbps\nWidth                                    : 1 280 pixels\nHeight                                   : 544 pixels\nDisplay aspect ratio                     : 2.35:1\nFrame rate mode                          : Constant\nFrame rate                               : 23.976 fps\nBits/(Pixel*Frame)                       : 0.035\nStream size                              : 486 MiB (63%)\nTitle                                    : TG ENCODER HEVC 265\nLanguage                                 : English\nDefault                                  : Yes\nForced                                   : No\n\nAudio #1\nID                                       : 2\nFormat                                   : AC-3\nFormat/Info                              : Audio Coding 3\nMode extension                           : CM (complete main)\nFormat settings, Endianness              : Big\nCodec ID                                 : A_AC3\nDuration                                 : 1h 56mn\nBit rate mode                            : Constant\nBit rate                                 : 128 Kbps\nChannel(s)                               : 2 channels\nChannel positions                        : Front: L R\nSampling rate                            : 48.0 KHz\nBit depth                                : 16 bits\nCompression mode                         : Lossy\nStream size                              : 107 MiB (14%)\nTitle                                    : TG ENCODER\nLanguage                                 : Hindi\nDefault                                  : Yes\nForced                                   : No\n\nAudio #2\nID                                       : 3\nFormat                                   : AC-3\nFormat/Info                              : Audio Coding 3\nMode extension                           : CM (complete main)\nFormat settings, Endianness              : Big\nCodec ID                                 : A_AC3\nDuration                                 : 1h 56mn\nBit rate mode                            : Constant\nBit rate                                 : 192 Kbps\nChannel(s)                               : 6 channels\nChannel positions                        : Front: L C R, Side: L R, LFE\nSampling rate                            : 48.0 KHz\nBit depth                                : 16 bits\nCompression mode                         : Lossy\nStream size                              : 160 MiB (21%)\nTitle                                    : TG ENCODER\nLanguage                                 : Korean\nDefault                                  : No\nForced                                   : No\n\n\n\nScreen Shots\n\n\n[img]http://s25.postimg.org/5fwkovk67/image.jpg[/img]\n\n[img]http://s25.postimg.org/evcg23273/image.jpg[/img]\n\n[img]http://s25.postimg.org/hvtaimdi7/image.jpg[/img]\n\n[img]http://s25.postimg.org/49x63tl9b/image.jpg[/img]\n\n[img]http://s25.postimg.org/r8pa8zrvj/image.jpg[/img]\n\n[img]http://s25.postimg.org/4p8fwu76n/image.jpg[/img]\n\n[img]http://s25.postimg.org/kyylzqhun/image.jpg[/img]\n\n[img]http://s25.postimg.org/w62uu3tun/image.jpg[/img]\n\n[img]http://s25.postimg.org/ffrh4rvfj/image.jpg[/img]\n\n[img]http://s25.postimg.org/x733j8au7/image.jpg[/img]","torrent":{"xt":"urn:btih:58206a75f8ccb0488b561f3c9d15fd1c37f6eb56","amp;dn":"Shadowless+Sword+%282005%29+720p+Blu-Ray+HEVC+265++%5BDual-Audio%5D+%5BKor","amp;tr":["udp%3A%2F%2Ftracker.openbittorrent.com%3A80","udp%3A%2F%2Fopen.demonii.com%3A1337","udp%3A%2F%2Ftracker.coppersurfer.tk%3A6969","udp%3A%2F%2Fexodus.desync.com%3A6969"],"infoHash":"58206a75f8ccb0488b561f3c9d15fd1c37f6eb56","infoHashBuffer":{"type":"Buffer","data":[88,32,106,117,248,204,176,72,139,86,31,60,157,21,253,28,55,246,235,86]},"announce":[],"urlList":[]}}